Coordinates
version=1
nRows=7
nColumns=46
inDegrees=yes

Units are S.I. units (second, meters, Newtons, ...)
Angles are in degrees.

endheader
time	pelvis_tilt	pelvis_list	pelvis_rotation	pelvis_tx	pelvis_ty	pelvis_tz	bb_angle	bb_tx	bb_ty	bb_tz	hip_flexion_r	hip_adduction_r	hip_rotation_r	knee_angle_r	knee_angle_r_beta	ankle_angle_r	subtalar_angle_r	mtp_angle_r	crank_angle_r	hip_flexion_l	hip_adduction_l	hip_rotation_l	knee_angle_l	knee_angle_l_beta	ankle_angle_l	subtalar_angle_l	mtp_angle_l	crank_angle_l	lumbar_extension	lumbar_bending	lumbar_rotation	arm_flex_r	arm_add_r	arm_rot_r	elbow_flex_r	pro_sup_r	wrist_flex_r	wrist_dev_r	arm_flex_l	arm_add_l	arm_rot_l	elbow_flex_l	pro_sup_l	wrist_flex_l	wrist_dev_l
      0.00000000	    -16.34349877	      2.78905613	      2.08372144	      0.10277015	      1.07298931	     -0.27096637	      0.00000000	      0.50000000	      0.00000000	      0.25000000	     43.18659236	     -8.22111922	     -2.09660089	     47.15879223	      0.82307620	      4.93511377	     -9.80675887	      0.00000000	      0.00000000	     93.43248485	     -2.30539790	     -0.88151538	    108.03384384	      1.88554628	     20.85323776	     -8.80547367	      0.00000000	      0.00000000	    -51.09370619	     -0.70580831	     -3.44995365	     89.51985441	     -7.17473213	     38.34787524	     27.83169872	     26.11074969	      0.00000000	      0.00000000	     89.36554629	     -7.32622142	     42.05505471	     29.21007435	     27.18265553	      0.00000000	      0.00000000
      0.00500000	    -16.36539940	      2.79118308	      2.05569703	      0.10280479	      1.07287981	     -0.27096765	      0.00000000	      0.50000000	      0.00000000	      0.25000000	     43.23985967	     -8.20610708	     -2.06076125	     47.22530070	      0.82423699	      4.96496460	     -9.80614173	      0.00000000	      0.00000000	     93.46240097	     -2.33693962	     -0.88471258	    108.03779477	      1.88561524	     20.86666658	     -8.79871691	      0.00000000	      0.00000000	    -51.06535485	     -0.73249343	     -3.40663091	     89.51829433	     -7.32527301	     38.54226474	     27.58077058	     28.11951075	      0.00000000	      0.00000000	     89.38159101	     -7.39641838	     42.40222100	     28.82809699	     29.21833331	      0.00000000	      0.00000000
      0.01000000	    -16.37453123	      2.73377839	      2.05216858	      0.10284849	      1.07274690	     -0.27108735	      0.00000000	      0.50000000	      0.00000000	      0.25000000	     43.25780199	     -8.16741676	     -2.09601791	     47.26750425	      0.82497358	      4.98619636	     -9.80321671	      0.00000000	      0.00000000	     93.49787055	     -2.32988468	     -0.82552939	    108.05417571	      1.88590114	     20.84958846	     -8.82738625	      0.00000000	      0.00000000	    -51.04562877	     -0.68976408	     -3.34118855	     89.51847068	     -7.42954382	     38.60243366	     27.53521698	     28.94524432	      0.00000000	      0.00000000	     89.37997039	     -7.39989445	     42.40169876	     28.70861525	     30.15998483	      0.00000000	      0.00000000
      0.01500000	    -16.37668915	      2.67452600	      2.03832270	      0.10300599	      1.07268598	     -0.27112073	      0.00000000	      0.50000000	      0.00000000	      0.25000000	     43.24305995	     -8.09759968	     -2.08159029	     47.27996375	      0.82519104	      5.00485180	     -9.83156013	      0.00000000	      0.00000000	     93.54078787	     -2.33530703	     -0.77470601	    108.06265590	      1.88604914	     20.77087133	     -8.88597942	      0.00000000	      0.00000000	    -51.02554107	     -0.62794711	     -3.35563189	     89.52117275	     -6.97816000	     37.32440863	     26.95513978	     30.43854873	      0.00000000	      0.00000000	     89.36817639	     -7.08177493	     40.82497096	     28.30140011	     31.57555164	      0.00000000	      0.00000000
      0.02000000	    -17.09771165	      6.47647331	      4.69634503	      0.10103254	      1.08253638	     -0.27195744	      0.00000000	      0.50000000	      0.00000000	      0.25000000	     43.26185955	    -12.97957801	     -1.47360112	     45.77374823	      0.79890262	      3.68370419	     -9.59651726	      0.00000000	      0.00000000	     83.82123407	      2.90219311	    -14.18015179	     93.80321142	      1.63717489	     23.69461964	    -34.30935329	      0.00000000	      0.00000000	    -51.87712857	     -1.83702950	     -8.01429748	     89.50636748	     -7.06807174	     36.49169367	     28.13099791	     30.81029781	      0.00000000	      0.00000000	     89.51747363	     -7.62700484	     39.74781555	     30.10913288	     31.96484945	      0.00000000	      0.00000000
      0.02500000	    -17.11535999	      6.37193334	      4.64766997	      0.10116927	      1.08234224	     -0.27196278	      0.00000000	      0.50000000	      0.00000000	      0.25000000	     43.29684884	    -12.86744046	     -1.50151344	     45.83398644	      0.79995397	      3.76457910	     -9.51954668	      0.00000000	      0.00000000	     83.91697382	      2.78441224	    -14.05738136	     93.90840464	      1.63901086	     23.68885499	    -34.29552875	      0.00000000	      0.00000000	    -51.81346840	     -1.78885819	     -7.96562440	     89.51786254	     -6.67027289	     35.62888082	     27.58984432	     31.18742137	      0.00000000	      0.00000000	     89.49300448	     -7.65061265	     39.34881831	     30.04487051	     32.38870371	      0.00000000	      0.00000000
      0.03000000	    -17.13198094	      6.29858297	      4.62517507	      0.10115282	      1.08224220	     -0.27194955	      0.00000000	      0.50000000	      0.00000000	      0.25000000	     43.34070903	    -12.78304043	     -1.49599608	     45.88473744	      0.80083974	      3.72843326	     -9.50481236	      0.00000000	      0.00000000	     83.98845681	      2.65109419	    -13.99712662	     93.98993409	      1.64043381	     23.61773117	    -34.26116435	      0.00000000	      0.00000000	    -51.78631859	     -1.76710097	     -7.92721422	     89.51627666	     -6.49272415	     34.92424519	     27.36871074	     32.13887805	      0.00000000	      0.00000000	     89.48930547	     -7.59540831	     38.91444118	     29.84914595	     33.27963895	      0.00000000	      0.00000000
